<svg xmlns="http://www.w3.org/2000/svg" xml:space="preserve" width="792" height="612" viewBox="0 0 792 612"><path fill="#e44f26" d="m75.383 467.266-27.07-303.62h297.45l-27.098 303.571-121.809 33.769z"/><path fill="#f1662a" d="m197.038 475.175 98.427-27.288 23.158-259.416H197.038z"/><path fill="#ebebeb" d="M197.038 301.08h-49.275l-3.404-38.132h52.679v-37.239h-93.375l.892 9.991 9.152 102.616h83.331zm0 96.708-.163.046-41.472-11.199-2.652-29.698h-37.38l5.217 58.467 76.278 21.176.172-.048z"/><path fill="#010101" d="M75.988 81.135h18.924v18.696h17.311V81.135h18.925v56.618h-18.924v-18.958h-17.31v18.958H75.988zm80.044 18.775h-16.66V81.135h52.252V99.91h-16.667v37.843h-18.924zm43.885-18.775h19.733l12.137 19.894 12.127-19.894h19.739v56.618h-18.846V109.69l-13.021 20.13h-.325l-13.028-20.13v28.063h-18.517zm73.154 0H292v37.903h26.612v18.714H273.07z"/><path fill="#fff" d="M196.909 301.08v37.236h45.854l-4.322 48.294-41.532 11.21v38.742l76.34-21.158.559-6.29 8.751-98.035.908-9.999h-10.034zm0-75.371v37.239h89.947l.747-8.37 1.696-18.878.891-9.991z"/><path fill="#131313" d="M685.164 96.681h-24.688l25.674 27.859v13.261h-52.882v-15.526h25.669l-25.669-27.86v-13.28h51.896zm-62.378 0h-24.688l25.673 27.859v13.261h-52.882v-15.526h25.672l-25.672-27.86v-13.28h51.897zm-61.768.631h-26.64v24.313h26.64v16.176h-45.574V81.135h45.574z"/><path fill="#1572b6" d="m479.142 467.29-27.071-303.62h297.45l-27.096 303.571-121.811 33.77z"/><path fill="#33a9dc" d="m600.798 475.199 98.427-27.288 23.157-259.415H600.798z"/><path fill="#fff" d="M600.797 298.496h49.275l3.403-38.132h-52.678v-37.239h93.375l-.893 9.991-9.152 102.616h-83.33z"/><path fill="#ebebeb" d="m601.02 395.204-.163.046-41.472-11.199-2.652-29.698h-37.379l5.216 58.467 76.278 21.176.172-.048z"/><path fill="#fff" d="m646.907 334.156-4.484 49.87-41.532 11.21v38.742l76.339-21.158.56-6.29 6.478-72.374z"/><path fill="#ebebeb" d="M600.926 223.125v37.239h-89.947l-.747-8.37-1.697-18.878-.89-9.991zm-.129 75.375v37.238H559.85l-.746-8.369-1.698-18.878-.89-9.991z"/></svg>