<svg xmlns="http://www.w3.org/2000/svg" width="107" height="94"><style>.B{stroke-width:1.682}.C{stroke:#fff}.D{stroke-linecap:round}.E{stroke-linejoin:round}</style><path fill="#231f20" d="M11.2 78.902H6.542v-4.26h4.92q2.701 0 2.702 2.163 0 2.097-2.955 2.097m3.354-4.3q-.96-.78-2.684-.78l-6.684.034v10.2h1.347l-.012-4.338h4.973q1.871 0 2.945-.78c1.074-.78 1.075-1.24 1.075-2.163s-.32-1.643-.96-2.163zm8.717 7.296a2.1 2.1 0 0 1-.639.867q-.905.8-2.76.8-1.677 0-2.574-.78c-.897-.78-.898-1.214-.898-2.085q0-.68.235-1.207a2.4 2.4 0 0 1 .68-.89q.928-.768 2.557-.768 3.606 0 3.606 2.864-.001.68-.205 1.196m.244-3.76q-1.23-1.02-3.645-1.02-2.281 0-3.524 1.04-1.122.942-1.122 2.54c0 1.598.386 1.913 1.16 2.563a4 4 0 0 0 1.491.761q.85.235 1.997.235 2.4 0 3.657-1.008 1.122-.92 1.122-2.552 0-1.643-1.135-2.563zm10.186 4.057q0 2.057-4.063 2.057-1.242 0-2.092-.143c-.85-.143-1.027-.254-1.38-.474a1.8 1.8 0 0 1-.65-.657 2.8 2.8 0 0 1-.313-1.018l1.26-.01q0 .81.662 1.193.71.46 2.515.46c1.893 0 2.84-.43 2.84-1.3q0-.755-.952-1.04c-.13-.037-.894-.133-2.297-.3l-2.622-.42q-1.12-.405-1.12-1.456 0-1.03 1.002-1.532.495-.209 1.237-.323c.742-.114 1.068-.115 1.72-.115 2.607 0 3.9.742 3.9 2.227h-1.2q0-1.565-2.75-1.565-1.398 0-2.086.317c-.688.317-.687.536-.687.974 0 .4.3.704.928.886q.543.143 2.496.328 1.748.142 2.4.405 1.242.438 1.242 1.488zm4.948 1.858-.513.065-.32.022q-1.23 0-1.775-.324c-.545-.324-.544-.594-.544-1.135v-4.65h-1.495v-.684h1.483l.012-2.197h1.15v2.197h2v.695l-2-.01v4.524q0 .506.296.698c.296.192.55.192 1.055.192q.109.01.24-.007c.131-.017.22-.04.398-.082l.012.698zm7.947-1.542a3.5 3.5 0 0 1-1.073.536 4.7 4.7 0 0 1-1.386.186q-3.604 0-3.604-2.7 0-1.258.922-1.968c.922-.71 1.48-.7 2.597-.7q1.689.001 2.56.716c.871.715.874 1.117.874 1.92q0 1.313-.892 2.023m2.04-5.16H47.5l-.012 1.15q-.76-.7-1.085-.886-.964-.48-2.496-.48c-1.496 0-2.637.3-3.425.93q-1.122.854-1.122 2.472 0 .798.284 1.427a2.86 2.86 0 0 0 .827 1.066c.8.598 1.904.897 3.346.897 1.73 0 2.96-.43 3.684-1.3v1.2q.002 1.139-.8 1.762c-.802.623-1.393.624-2.6.624q-1.701 0-2.424-.425c-.362-.218-.6-.596-.748-1.133h-1.182q.195 1.126 1.05 1.63.99.58 3.342.58 4.5 0 4.5-3.036v-6.5zm6.217.675a7 7 0 0 0-.964-.076q-2.832 0-2.832 2.82v3.268H49.93l-.012-6.687 1.15.01v1.193h.06a2.13 2.13 0 0 1 .916-1.069q.686-.353 2.05-.353h.77v.895zm1.068 2.234q.217-1.14.976-1.765.495-.36 1.12-.543c.625-.183.888-.18 1.4-.18q1.53 0 2.5.762c.97.762.97 1.083.97 1.727h-6.98m7.092-2.063q-.603-.55-1.496-.812c-.893-.262-1.3-.264-2.087-.264-1.5 0-2.643.314-3.464.942s-1.23 1.482-1.23 2.563.394 1.938 1.182 2.573q1.279 1.05 3.607 1.05c.62 0 1.192-.064 1.72-.2s.987-.307 1.38-.54q1.038-.676 1.315-1.668h-1.242q-.639 1.715-3.183 1.715-1.798 0-2.76-.84-.832-.72-.832-1.863h8.2q0-1.702-1.098-2.668z"/><path fill="#367faf" d="M76.258 81.305q0 2.978-5.294 2.978-3.172 0-4.63-1.026-1.194-.843-1.194-2.572h1.42q0 2.78 4.403 2.78c1.407 0 2.425-.2 3.053-.57q.796-.502.796-1.575 0-1.06-1.086-1.487c-.4-.153-1.412-.346-3.004-.58q-3.003-.416-3.897-.83c-.86-.408-1.3-1.1-1.3-2.078 0-.9.366-1.6 1.098-2.034q1.183-.733 4.054-.733 5.189 0 5.188 3.127h-1.433q0-2.343-3.852-2.342-1.932 0-2.826.47-.845.504-.845 1.478 0 1.02 1.086 1.434.579.24 3.402.668 2.654.36 3.584.843 1.267.591 1.267 2.048zm11.54 1.013a5.8 5.8 0 0 1-1.799.869c-.668.193-1.417.3-2.246.3-1.7 0-3.057-.413-4.1-1.24S78.1 80.307 78.1 78.93q0-2.152 1.55-3.355c1.55-1.203 2.405-1.202 4.112-1.202q2.596 0 4.082 1.257a3.9 3.9 0 0 1 1.16 1.432c.26.547.374 1.17.374 1.87q0 2.142-1.57 3.387m.755.676q1.11-.711 1.642-1.722c.532-1.011.532-1.453.532-2.335q0-2.372-1.738-3.806-.93-.788-2.244-1.17c-1.314-.382-1.88-.383-3.004-.383q-3.282-.001-5.152 1.444c-1.87 1.445-1.87 2.267-1.87 3.915a4.69 4.69 0 0 0 1.887 3.882q1.887 1.476 5.157 1.476a14 14 0 0 0 2.23-.157q.952-.157 1.617-.482l2.1 1.32.876-.73-2.032-1.25zm12.804 1.04H91.66v-10.2l1.334-.022v9.37h8.385z"/><path fill="#231f20" stroke="#231f20" stroke-width="5.046" d="M67.546 49.655c.382-3.185.268-3.652 2.64-3.136l.602.053c1.824.083 4.2-.293 5.612-.945 3.018-1.4 4.807-3.738 1.832-3.124-6.787 1.4-7.254-.898-7.254-.898 7.167-10.634 10.163-24.134 7.577-27.44-7.054-9.013-19.263-4.75-19.468-4.64l-.065.012c-1.342-.278-2.842-.444-4.528-.472-3.07-.05-5.402.805-7.17 2.146 0 0-21.78-8.974-20.768 11.286.216 4.3 6.178 32.612 13.288 24.063 2.6-3.126 5.11-5.77 5.11-5.77a6.6 6.6 0 0 0 4.306 1.1l.12-.103c-.038.388-.02.768.048 1.217-1.832 2.047-1.293 2.406-4.956 3.16-3.705.764-1.528 2.123-.107 2.478 1.723.43 5.71 1.04 8.402-2.73l-.107.43c.72.575.67 4.132.772 6.673s.272 4.913.8 6.312 1.13 5 5.943 3.968c4.023-.862 7.098-2.103 7.38-13.644"/><path fill="#417ba2" d="M78.233 42.503c-6.788 1.4-7.255-.898-7.255-.898 7.167-10.635 10.163-24.135 7.578-27.44-7.054-9.012-19.264-4.75-19.468-4.64l-.066.012c-1.342-.278-2.842-.444-4.53-.472-3.07-.05-5.4.805-7.17 2.146 0 0-21.782-8.973-20.77 11.286.215 4.3 6.177 32.612 13.288 24.064 2.6-3.126 5.1-5.77 5.1-5.77a6.6 6.6 0 0 0 4.306 1.1l.122-.103c-.038.388-.02.768.05 1.217-1.832 2.047-1.294 2.406-4.956 3.16-3.706.764-1.53 2.123-.108 2.478 1.723.43 5.71 1.04 8.402-2.73l-.107.43c.718.575 1.222 3.74 1.137 6.608s-.14 4.838.425 6.377 1.13 5 5.944 3.968c4.023-.862 6.107-3.096 6.397-6.822.206-2.65.67-2.258.7-4.626l.374-1.12c.43-3.59.068-4.75 2.547-4.21l.602.053c1.824.083 4.21-.293 5.613-.945 3.017-1.4 4.807-3.738 1.832-3.124z"/><g fill="none" class="C B"><g class="D"><path d="M53.06 44.562c-.187 6.682.047 13.4.7 15.046s2.054 4.816 6.87 3.785c4.022-.862 5.486-2.53 6.12-6.214.468-2.7 1.37-10.236 1.485-11.778M47.3 11.063s-21.797-8.9-20.783 11.35c.216 4.3 6.178 32.613 13.3 24.064 2.6-3.126 4.95-5.578 4.95-5.578M59.064 9.437c-.755.237 12.125-4.708 19.444 4.644 2.585 3.304-.4 16.804-7.578 27.44" class="E"/><path stroke-linejoin="bevel" d="M70.93 41.52s.467 2.3 7.255.898c2.974-.614 1.184 1.724-1.832 3.125-2.476 1.15-8.026 1.443-8.117-.144-.234-4.096 2.92-2.852 2.694-3.878-.206-.924-1.617-1.832-2.55-4.094-.815-1.975-11.173-17.12 2.873-14.87.515-.106-3.663-13.36-16.808-13.575s-12.7 16.162-12.7 16.162"/></g><g class="E"><path d="M49.383 42.922c-1.832 2.047-1.293 2.406-4.956 3.16-3.705.764-1.528 2.123-.108 2.478 1.723.43 5.71 1.042 8.402-2.73.82-1.148-.005-2.98-1.13-3.448-.544-.225-1.272-.508-2.208.54z"/><path d="M49.262 42.886c-.184-1.203.396-2.635 1.017-4.31.934-2.513 3.09-5.028 1.365-13-1.285-5.942-9.904-1.237-9.91-.43s.4 4.084-.144 7.9c-.697 4.98 3.17 9.194 7.622 8.763" class="D"/></g></g><g fill="#fff" class="C"><path stroke-width=".561" d="M47.212 25.023c-.04.275.504 1.01 1.21 1.108s1.31-.475 1.35-.75-.504-.578-1.21-.677-1.312.045-1.35.32z"/><path stroke-width=".28" d="M68.725 24.462c.038.275-.504 1-1.21 1.108s-1.31-.475-1.35-.75.505-.578 1.212-.677 1.31.045 1.35.32z"/></g><path fill="none" d="M71.253 22.557c.116 2.158-.465 3.63-.538 5.927-.11 3.34 1.592 7.162-.97 10.99" class="B C D E"/></svg>