<svg xmlns="http://www.w3.org/2000/svg" xml:space="preserve" viewBox="0 0 595.28 841.89"><path d="M343.22 290.2c-.94-.51-1.91-.98-2.88-1.46-.84-.42-1.69-.82-2.56-1.21-8.43-3.92-17.39-6.88-26.73-8.78-7.77-1.56-15.79-2.39-24.01-2.39-8.85 0-17.49.95-25.8 2.78-7.93 1.71-15.55 4.21-22.81 7.42-42.64 18.76-72.49 61.41-72.49 110.91 0 50.07 30.56 93.15 74.01 111.56 8 3.4 16.45 5.94 25.22 7.55 7.09 1.3 14.41 1.98 21.87 1.98 13.87 0 27.21-2.34 39.62-6.67 3.18-1.1 6.31-2.33 9.34-3.69 42.45-18.83 72.13-61.38 72.13-110.73 0-46.53-26.35-86.99-64.91-107.27m-53.37 7.4c12.64 0 22.38 3.37 30.1 10.36-2.02 12.79-6.09 33.5-6.91 45.24-.64 9.04-.48 20.58-.2 28.74-4.95-1.75-10.23-3.41-15.78-5.18-.33-.1-.69-.22-1.06-.33-.77-2.39-1.29-3.99-1.5-4.58-1.17-3.23-14.96-41.71-24.82-69.21 5.21-3.11 11.85-5.04 20.17-5.04m-17.98 68.02c-3.41-2.08-6.54-4.38-9.01-6.86-2.67-2.78-4.6-5.82-6-8.97-.02-8.59.06-16.93.33-23.63 3.91 10.59 9.49 25.62 14.68 39.46m-17.68 108.64c-.01-.01-.01-.03-.03-.04-9.89-15.29-10.49-25.2-10.79-34.78 0-1.79-.61-2.4-1.79-2.4l-4.5-.3c-1.2 0-1.81 0-2.11 1.81-.74 7.19-2.91 34.44-4.32 47.9-29.42-18.7-48.99-51.61-48.99-88.98 0-42.77 25.6-79.67 62.29-96.15.32 1.92.58 3.99.77 6.22-6.99 8.65-12.74 20.26-12.74 32.05 0 18.41 4.41 31.89 13 41.64l1.16 29.17c1.2 16.63 5.58 30.03 8.03 49.05 1.27 9.86.63 13.19.02 14.81m41.96 22.14c-6 0-12-1.07-17.63-3.12-.07-1.14-.16-2.4-.26-3.8-.04-.54-3.1-10.28-3.25-10.79-1.92-5.77-9.02-23.71-14.08-50.95-2.25-12.86-2.25-24.75-2.36-34.95 10.15 6.62 21.57 11.04 28.93 13.68 4.12 10.91 13.49 36.25 22.56 60.5 3.02 8.17 6 16.21 8.71 23.53-7.08 4.04-15.26 5.9-22.62 5.9m19.95-55.71c-2.5-7.96-5.34-17.07-8.13-25.99 3.75 1.87 7.29 3.95 10.51 6.32 1.13 7.97 2.62 18.64 2.62 18.64.29 3.07-4.08 3.97-5 1.03m15.78 37.16c-.52-5.66-.94-11.83-1.21-18.44 0-.06-.4-12.66-1.32-27.5 4.74 6.81 7.58 15.36 7.58 26.41-.01 7.8-1.91 14.26-5.05 19.53m13.67 7.2c8.55-11.6 12.97-26.6 12.97-42.62 0-19.79-5.4-31.49-13.19-40.77-5.41-6.6-12.31-11.18-20.45-14.93-1.36-21.48 3.59-46.69 7.26-64.04 5.08 8.03 7.38 15.24 8.98 21.1.3.9.91 1.2 1.81.9l3.6-.9c1.19-.3 1.49-.91 1.49-2.4-.2-4.38-1.98-19.35-3.17-31.99 28.62 18.86 47.56 51.29 47.56 88.07 0 36.47-18.63 68.66-46.86 87.58"/></svg>