<?xml version="1.0" encoding="utf-8"?>
<!-- Generator: Adobe Illustrator 19.0.1, SVG Export Plug-In . SVG Version: 6.00 Build 0)  -->
<svg version="1.1" id="Layer_1" xmlns="http://www.w3.org/2000/svg" xmlns:xlink="http://www.w3.org/1999/xlink" x="0px" y="0px"
	 viewBox="-148 -60 342 480" style="enable-background:new -148 -60 342 480;" xml:space="preserve">
<style type="text/css">
	.st0{fill:#0170BA;}
	.st1{fill:#29A9DF;}
	.st2{fill:#CFCFCF;}
	.st3{fill:#FFFFFF;}
</style>
<g id="_x23_000000ff">
	<path d="M-74.3-46.6c19.9-0.2,39.8-0.1,59.7-0.1c0,6.2,0.1,12.5-0.1,18.7c-13.8-0.1-27.6,0-41.4,0.1c-0.1,9-0.3,18.1-0.2,27.1
		c13.8,0.1,27.7,0.2,41.5,0.2c0.2,5.1,0.1,10.3,0,15.4c-19.9-0.1-39.7-0.1-59.6-0.1C-74.2-5.7-74.2-26.2-74.3-46.6z"/>
	<path d="M-7.5-46.7c20.2,0,40.3-0.2,60.5,0.1c-0.1,5.9,0,11.8,0,17.7c-14.7,0-29.3,0-44,0.2c0,2.3,0,4.6,0,6.9
		c14.6,0.2,29.3,0.3,43.9,0.4C53-9.4,52.9,2.7,53,14.7c-20.2,0-40.3,0-60.5,0.1c-0.1-4.9-0.1-9.7,0-14.6c14,0,28,0.1,41.9-0.1
		c0.1-3.1,0.1-6.3,0.1-9.4c-14,0-28.1,0-42.1,0C-7.6-21.8-7.6-34.2-7.5-46.7z"/>
	<path d="M59.7-46.6c20.1,0,40.2,0,60.4,0c0.1,5.9,0.2,11.8,0,17.7c-14.7,0-29.5,0.1-44.2,0.1c0,2.4,0.1,4.8,0.2,7.3
		c14.6-0.1,29.3,0.1,43.9,0.3c0.1,12,0.2,24,0.1,36c-20.2-0.1-40.3-0.1-60.5,0c-0.1-4.9-0.2-9.7,0-14.6c13.9,0.1,27.9,0.1,41.9,0
		c0-3.1,0.1-6.3,0.1-9.4c-14,0.1-28,0.1-42,0C59.6-21.6,59.7-34.1,59.7-46.6z"/>
</g>
<g id="_x23_0170baff">
	<path class="st0" d="M-139.1,40.1c108,0,216,0,324,0c-5.9,67.2-11.8,134.3-18,201.5c-3.7,42.9-7.5,85.8-11.5,128.7
		c-23,6.1-45.9,13.1-68.9,19.2c-21.2,6.2-42.5,11.8-63.7,18h-0.6c-20.1-6-40.5-11.3-60.6-17.3c-23.8-6.4-47.3-13.6-71.1-19.9
		c-3.1-32.1-5.9-64.3-8.7-96.5c-5.2-59.4-10.9-118.8-15.9-178.3c-1.7-17.9-3-35.8-5.1-53.7V40.1 M23.4,66.6
		c-0.2,12.9,0.2,25.8-0.2,38.7c-37.1-0.1-74.1,0-111.2,0c0.6,12.5,2.3,25,4,37.4c34.5,1.3,69,0,103.5,1
		c-30.2,13.5-60.7,26.3-91,39.5c-2.6,1.2-5.4,2-7.7,3.7c0.3,13.8,2.5,27.4,3.5,41.2c18.4-0.1,36.7-0.4,55.1-0.4
		c14.7-0.1,29.5,0.2,44.2-0.1c-0.7,22.6,0.2,45.3-0.5,67.9c-9.9-1.5-19.7-3.7-29.6-5.4c-7.8-1.7-15.8-2.6-23.4-4.8
		c-1.1-10.9-1.8-21.7-2.8-32.6c-2.2-0.7-4.6-0.6-6.9-0.7c-11.1,0.1-22.3,0-33.4,0.1c1.1,20.9,3,41.7,6.2,62.4
		c11,2.9,22,5.7,32.9,8.7c16.8,4.6,33.8,8.4,50.6,12.9c2,0.4,4,1.2,6.1,1c1.1,13.7,0.3,27.6,0.5,41.3c3.9-0.6,7.7-1.6,11.4-2.7
		c31.8-8.6,63.6-17.5,95.5-26.2c1.6-12.5,2.3-25.1,3.6-37.7c3.3-38.1,6.6-76.3,10.1-114.4c4.1-43.6,7.6-87.3,11.7-130.9
		C111.5,66.6,67.4,66.5,23.4,66.6z"/>
</g>
<g id="_x23_29a9dfff">
	<path class="st1" d="M23.4,66.6c44-0.1,88.1,0,132.2-0.1c-4.1,43.6-7.6,87.3-11.7,130.9c-3.5,38.1-6.8,76.3-10.1,114.4
		c-1.3,12.5-2,25.1-3.6,37.7c-31.8,8.7-63.6,17.5-95.5,26.2c-3.7,1.2-7.6,2.1-11.4,2.7c-0.2-13.8,0.7-27.6-0.5-41.3
		c0.3-0.1,0.9-0.2,1.1-0.2c29.6-7.4,59-15.6,88.6-23.3c3.7-41.9,7.9-83.8,10.5-125.8c-25.1,0.1-50.3,0.1-75.4,0.2
		c-3.7,0-7.3,0-11-0.3c13.5-7,27.7-12.5,41.6-18.7c13.3-6,26.8-11.7,40.2-17.6c2.6-1.2,5.3-2.2,7.6-3.9c0.9-3.3,0.8-6.7,1.2-10
		c0.8-10.6,2.1-21.2,2.6-31.8c-35.6-0.3-71.2,0-106.8-0.2C23.6,92.5,23.2,79.5,23.4,66.6z"/>
	<path class="st1" d="M23.6,227.6c17.2-0.3,34.4,0.2,51.6,0.1c-1,17.6-2.4,35.1-3.3,52.7c-10.5,3.4-21.2,6.4-31.8,9.5
		c-5.7,1.7-11.5,3.1-16.9,5.6C23.8,272.9,22.9,250.3,23.6,227.6z"/>
</g>
<g id="_x23_cfcfcfff">
	<path class="st2" d="M-88,105.4c37.1,0,74.1-0.1,111.2,0c0.5,40.8-0.1,81.5,0.4,122.3c-14.7,0.3-29.5,0-44.2,0.1
		c-18.4,0-36.7,0.3-55.1,0.4c-1-13.7-3.2-27.4-3.5-41.2c2.3-1.7,5.1-2.6,7.7-3.7c30.3-13.2,60.8-26,91-39.5c-34.5-1-69,0.3-103.5-1
		C-85.7,130.3-87.4,117.9-88,105.4z"/>
	<path class="st2" d="M-73,252.1c11.1-0.2,22.3-0.1,33.4-0.1c2.3,0,4.6,0,6.9,0.7c1,10.9,1.7,21.8,2.8,32.6
		c7.7,2.2,15.6,3.1,23.4,4.8c9.9,1.8,19.7,4,29.6,5.4c0.9,13.8-0.7,27.6,0.9,41.3c-0.3,0.1-0.9,0.2-1.1,0.2c-2.1,0.2-4.1-0.6-6.1-1
		c-16.8-4.5-33.8-8.3-50.6-12.9c-11-3-22-5.8-32.9-8.7C-70,293.9-71.9,273-73,252.1z"/>
</g>
<g id="_x23_ffffffff">
	<path class="st3" d="M23.2,105.4c35.6,0.2,71.2-0.1,106.8,0.2c-0.5,10.6-1.9,21.2-2.6,31.8c-0.4,3.3-0.3,6.8-1.2,10
		c-2.3,1.8-5,2.7-7.6,3.9c-13.4,5.9-26.8,11.6-40.2,17.6c-13.9,6.2-28.1,11.7-41.6,18.7c3.6,0.3,7.3,0.3,11,0.3
		c25.1-0.1,50.3,0,75.4-0.2c-2.6,42-6.8,83.9-10.5,125.8c-29.5,7.7-59,15.9-88.6,23.3c-1.6-13.7,0.1-27.6-0.9-41.3
		c5.4-2.5,11.2-3.9,16.9-5.6c10.6-3.2,21.3-6.1,31.8-9.5c0.9-17.6,2.4-35.1,3.3-52.7c-17.2,0.1-34.4-0.4-51.6-0.1
		C23,186.9,23.6,146.1,23.2,105.4z"/>
</g>
</svg>
