<?xml version="1.0" encoding="utf-8"?>
<!-- Generator: Adobe Illustrator 15.0.0, SVG Export Plug-In . SVG Version: 6.00 Build 0)  -->
<!DOCTYPE svg PUBLIC "-//W3C//DTD SVG 1.1//EN" "http://www.w3.org/Graphics/SVG/1.1/DTD/svg11.dtd">
<svg version="1.1" id="Layer_1" xmlns="http://www.w3.org/2000/svg" xmlns:xlink="http://www.w3.org/1999/xlink" x="0px" y="0px"
	 width="219.845px" height="141.776px" viewBox="0 0 219.845 141.776" enable-background="new 0 0 219.845 141.776"
	 xml:space="preserve">
<g opacity="0.47">
	<path fill="#CCCCCC" d="M65,51.775c0,6.075-4.925,11-11,11H28c-6.075,0-11-4.925-11-11v-2c0-6.075,4.925-11,11-11h26
		c6.075,0,11,4.925,11,11V51.775z"/>
	<path fill="#CCCCCC" d="M93,41.659c0,7.244-5.872,13.116-13.115,13.116h-30.77C41.872,54.775,36,48.903,36,41.659v-1.769
		c0-7.244,5.872-13.116,13.115-13.116h30.77C87.128,26.775,93,32.647,93,39.891V41.659z"/>
	<path fill="#CCCCCC" d="M30,53.358c0,3.544-2.873,6.417-6.417,6.417h-7.167c-3.544,0-6.417-2.873-6.417-6.417v-0.167
		c0-3.544,2.873-6.417,6.417-6.417h7.167c3.544,0,6.417,2.873,6.417,6.417V53.358z"/>
	<path fill="#CCCCCC" d="M65,70.025c0,1.519-1.231,2.75-2.75,2.75h-18.5c-1.519,0-2.75-1.231-2.75-2.75v-0.5
		c0-1.519,1.231-2.75,2.75-2.75h18.5c1.519,0,2.75,1.231,2.75,2.75V70.025z"/>
	<path fill="#CCCCCC" d="M75,57.803c0,2.193-1.778,3.972-3.972,3.972H52.972c-2.194,0-3.972-1.778-3.972-3.972v-0.057
		c0-2.193,1.778-3.972,3.972-3.972h18.056c2.194,0,3.972,1.778,3.972,3.972V57.803z"/>
	<path fill="#CCCCCC" d="M60,62.803c0,2.194-1.779,3.972-3.973,3.972H39.973c-2.194,0-3.973-1.778-3.973-3.972v-0.056
		c0-2.194,1.779-3.972,3.973-3.972h16.055c2.194,0,3.973,1.778,3.973,3.972V62.803z"/>
	<path fill="#CCCCCC" d="M107,56.775c0,4.971-4.029,9-9,9H77c-4.971,0-9-4.029-9-9l0,0c0-4.971,4.029-9,9-9h21
		C102.971,47.775,107,51.804,107,56.775L107,56.775z"/>
	<path fill="#CCCCCC" d="M82,65.969c0,3.207-2.6,5.806-5.806,5.806H57.806C54.6,71.775,52,69.176,52,65.969v-0.389
		c0-3.207,2.6-5.806,5.806-5.806h18.388c3.207,0,5.806,2.599,5.806,5.806V65.969z"/>
	<path fill="#CCCCCC" d="M109,73.275c0,3.038-2.463,5.5-5.5,5.5h-23c-3.038,0-5.5-2.462-5.5-5.5v-0.001c0-3.037,2.462-5.5,5.5-5.5
		h23C106.537,67.775,109,70.237,109,73.275L109,73.275z"/>
	<path fill="#CCCCCC" d="M107,68.275c0,1.933-1.567,3.5-3.5,3.5h-19c-1.933,0-3.5-1.567-3.5-3.5l0,0c0-1.933,1.567-3.5,3.5-3.5h19
		C105.433,64.775,107,66.342,107,68.275L107,68.275z"/>
	<path fill="#CCCCCC" d="M129,49.775c0,6.075-4.925,11-11,11h-10c-6.075,0-11-4.925-11-11l0,0c0-6.075,4.925-11,11-11h10
		C124.075,38.775,129,43.7,129,49.775L129,49.775z"/>
	<path fill="#CCCCCC" d="M109,42.427c0,2.954-2.394,5.348-5.347,5.348H92.347c-2.953,0-5.347-2.394-5.347-5.348v-0.305
		c0-2.954,2.394-5.348,5.347-5.348h11.307c2.953,0,5.347,2.394,5.347,5.348V42.427z"/>
	<path fill="#CCCCCC" d="M117,56.344c0,2.447-1.983,4.431-4.431,4.431h-12.139c-2.447,0-4.431-1.984-4.431-4.431v-0.139
		c0-2.447,1.983-4.431,4.431-4.431h12.139c2.447,0,4.431,1.984,4.431,4.431V56.344z"/>
	<path fill="#CCCCCC" d="M122,62.775c0,1.657-1.343,3-3,3h-13c-1.657,0-3-1.343-3-3l0,0c0-1.657,1.343-3,3-3h13
		C120.657,59.775,122,61.118,122,62.775L122,62.775z"/>
	<path fill="#CCCCCC" d="M138,56.428c0,2.953-2.394,5.347-5.347,5.347h-18.307c-2.953,0-5.347-2.394-5.347-5.347v-0.306
		c0-2.953,2.394-5.347,5.347-5.347h18.307c2.953,0,5.347,2.394,5.347,5.347V56.428z"/>
	<path fill="#CCCCCC" d="M138,45.775c0,1.657-1.343,3-3,3h-16c-1.657,0-3-1.343-3-3l0,0c0-1.657,1.343-3,3-3h16
		C136.657,42.775,138,44.118,138,45.775L138,45.775z"/>
	<path fill="#CCCCCC" d="M137,50.275c0,1.933-1.567,3.5-3.5,3.5h-7c-1.933,0-3.5-1.567-3.5-3.5l0,0c0-1.933,1.567-3.5,3.5-3.5h7
		C135.433,46.775,137,48.342,137,50.275L137,50.275z"/>
	<path fill="#CCCCCC" d="M126,62.775c0,1.657-1.343,3-3,3h-12c-1.657,0-3-1.343-3-3l0,0c0-1.657,1.343-3,3-3h12
		C124.657,59.775,126,61.118,126,62.775L126,62.775z"/>
	<path fill="#CCCCCC" d="M131,49.483c0,1.266-1.026,2.292-2.292,2.292h-11.416c-1.266,0-2.292-1.026-2.292-2.292v-0.417
		c0-1.266,1.026-2.292,2.292-2.292h11.416c1.266,0,2.292,1.026,2.292,2.292V49.483z"/>
	<path fill="#CCCCCC" d="M134,40.802c0,2.194-1.778,3.973-3.972,3.973h-15.057c-2.193,0-3.972-1.779-3.972-3.973v-0.055
		c0-2.194,1.778-3.973,3.972-3.973h15.057c2.193,0,3.972,1.779,3.972,3.973V40.802z"/>
	<path fill="#CCCCCC" d="M138,75.345c0,2.446-1.983,4.43-4.43,4.43H110.43c-2.446,0-4.43-1.983-4.43-4.43v-0.141
		c0-2.446,1.983-4.43,4.43-4.43h23.141c2.446,0,4.43,1.983,4.43,4.43V75.345z"/>
	<path fill="#CCCCCC" d="M125,68.886c0,2.7-2.188,4.889-4.889,4.889h-7.223c-2.7,0-4.889-2.189-4.889-4.889v-0.222
		c0-2.7,2.188-4.889,4.889-4.889h7.223c2.7,0,4.889,2.189,4.889,4.889V68.886z"/>
	<path fill="#CCCCCC" d="M115,67.775c0,1.657-1.343,3-3,3h-9c-1.657,0-3-1.343-3-3l0,0c0-1.657,1.343-3,3-3h9
		C113.657,64.775,115,66.118,115,67.775L115,67.775z"/>
	<path fill="#CCCCCC" d="M146,65.441c0,4.05-3.283,7.333-7.333,7.333h-11.334c-4.05,0-7.333-3.283-7.333-7.333v-0.333
		c0-4.05,3.283-7.333,7.333-7.333h11.334c4.05,0,7.333,3.283,7.333,7.333V65.441z"/>
	<path fill="#CCCCCC" d="M146,54.275c0,3.038-2.463,5.5-5.5,5.5h-3c-3.037,0-5.5-2.462-5.5-5.5l0,0c0-3.038,2.463-5.5,5.5-5.5h3
		C143.537,48.775,146,51.237,146,54.275L146,54.275z"/>
	<path fill="#CCCCCC" d="M147,47.275c0,1.933-1.567,3.5-3.5,3.5h-9c-1.933,0-3.5-1.567-3.5-3.5l0,0c0-1.933,1.567-3.5,3.5-3.5h9
		C145.433,43.775,147,45.342,147,47.275L147,47.275z"/>
	<path fill="#CCCCCC" d="M145,42.886c0,2.7-2.188,4.889-4.889,4.889h-7.223c-2.7,0-4.889-2.189-4.889-4.889v-0.222
		c0-2.7,2.188-4.889,4.889-4.889h7.223c2.7,0,4.889,2.189,4.889,4.889V42.886z"/>
	<path fill="#CCCCCC" d="M116,80.177c0,1.435-1.163,2.598-2.598,2.598H90.598c-1.435,0-2.598-1.163-2.598-2.598v-0.805
		c0-1.435,1.163-2.598,2.598-2.598h22.805c1.435,0,2.598,1.163,2.598,2.598V80.177z"/>
	<path fill="#CCCCCC" d="M150,73.428c0,2.953-2.395,5.347-5.348,5.347h-29.305c-2.953,0-5.348-2.394-5.348-5.347v-0.307
		c0-2.953,2.395-5.347,5.348-5.347h29.305c2.953,0,5.348,2.394,5.348,5.347V73.428z"/>
	<path fill="#CCCCCC" d="M137,81.775c0,1.657-1.343,3-3,3h-16c-1.657,0-3-1.343-3-3l0,0c0-1.657,1.343-3,3-3h16
		C135.657,78.775,137,80.118,137,81.775L137,81.775z"/>
	<path fill="#CCCCCC" d="M157,62.025c0,1.519-1.231,2.75-2.75,2.75h-9.5c-1.519,0-2.75-1.231-2.75-2.75v-0.5
		c0-1.519,1.231-2.75,2.75-2.75h9.5c1.519,0,2.75,1.231,2.75,2.75V62.025z"/>
	<path fill="#CCCCCC" d="M153,56.025c0,1.519-1.231,2.75-2.75,2.75h-4.5c-1.519,0-2.75-1.231-2.75-2.75v-0.5
		c0-1.519,1.231-2.75,2.75-2.75h4.5c1.519,0,2.75,1.231,2.75,2.75V56.025z"/>
	<path fill="#CCCCCC" d="M163,47.553c0,0.675-0.547,1.222-1.222,1.222h-14.557c-0.675,0-1.222-0.547-1.222-1.222v-0.557
		c0-0.675,0.547-1.222,1.222-1.222h14.557c0.675,0,1.222,0.547,1.222,1.222V47.553z"/>
	<path fill="#CCCCCC" d="M158,52.803c0,2.194-1.778,3.972-3.972,3.972h-5.057c-2.193,0-3.972-1.778-3.972-3.972v-0.056
		c0-2.194,1.778-3.972,3.972-3.972h5.057c2.193,0,3.972,1.778,3.972,3.972V52.803z"/>
	<path fill="#CCCCCC" d="M150,59.483c0,1.266-1.026,2.292-2.292,2.292h-0.416c-1.266,0-2.292-1.026-2.292-2.292v-0.417
		c0-1.266,1.026-2.292,2.292-2.292h0.416c1.266,0,2.292,1.026,2.292,2.292V59.483z"/>
	<path fill="#CCCCCC" d="M154,58.858c0,0.506-0.41,0.917-0.917,0.917h-13.166c-0.507,0-0.917-0.41-0.917-0.917v-0.167
		c0-0.506,0.41-0.917,0.917-0.917h13.166c0.507,0,0.917,0.41,0.917,0.917V58.858z"/>
	<path fill="#CCCCCC" d="M154,48.177c0,1.435-1.162,2.598-2.597,2.598h-3.807c-1.435,0-2.597-1.163-2.597-2.598v-0.805
		c0-1.435,1.162-2.598,2.597-2.598h3.807c1.435,0,2.597,1.163,2.597,2.598V48.177z"/>
	<path fill="#CCCCCC" d="M157,49.775c0,1.657-1.343,3-3,3h-15c-1.657,0-3-1.343-3-3l0,0c0-1.657,1.343-3,3-3h15
		C155.657,46.775,157,48.118,157,49.775L157,49.775z"/>
	<path fill="#CCCCCC" d="M162,66.775c0,2.209-1.791,4-4,4h-6c-2.209,0-4-1.791-4-4l0,0c0-2.209,1.791-4,4-4h6
		C160.209,62.775,162,64.566,162,66.775L162,66.775z"/>
	<path fill="#CCCCCC" d="M169,68.275c0,5.799-4.701,10.5-10.5,10.5h-17c-5.799,0-10.5-4.701-10.5-10.5l0,0
		c0-5.799,4.701-10.5,10.5-10.5h17C164.299,57.775,169,62.476,169,68.275L169,68.275z"/>
</g>
<g>
	<path fill="#8DBEF7" d="M76,42.775c0,6.627-5.373,12-12,12H36c-6.627,0-12-5.373-12-12v-2c0-6.627,5.373-12,12-12h28
		c6.627,0,12,5.373,12,12V42.775z"/>
	<path fill="#8DBEF7" d="M107,32.467c0,7.902-6.406,14.308-14.308,14.308H59.308C51.406,46.775,45,40.369,45,32.467v-2.385
		c0-7.902,6.406-14.308,14.308-14.308h33.385c7.901,0,14.308,6.406,14.308,14.308V32.467z"/>
	<path fill="#8DBEF7" d="M39,44.775c0,3.866-3.134,7-7,7h-8c-3.866,0-7-3.134-7-7l0,0c0-3.866,3.134-7,7-7h8
		C35.866,37.775,39,40.909,39,44.775L39,44.775z"/>
	<path fill="#8DBEF7" d="M76,62.775c0,1.657-1.343,3-3,3H53c-1.657,0-3-1.343-3-3l0,0c0-1.657,1.343-3,3-3h20
		C74.657,59.775,76,61.118,76,62.775L76,62.775z"/>
	<path fill="#89B5E0" d="M87,49.442c0,2.393-1.94,4.333-4.333,4.333H63.333c-2.393,0-4.333-1.94-4.333-4.333v-0.334
		c0-2.393,1.94-4.333,4.333-4.333h19.334c2.393,0,4.333,1.94,4.333,4.333V49.442z"/>
	<path fill="#89B5E0" d="M71,55.441c0,2.394-1.94,4.333-4.333,4.333H49.333c-2.394,0-4.333-1.94-4.333-4.333v-0.333
		c0-2.394,1.94-4.333,4.333-4.333h17.333c2.394,0,4.333,1.94,4.333,4.333V55.441z"/>
	<path fill="#89B5E0" d="M123,48.775c0,5.523-4.478,10-10,10H90c-5.523,0-10-4.477-10-10l0,0c0-5.523,4.477-10,10-10h23
		C118.522,38.775,123,43.252,123,48.775L123,48.775z"/>
	<path fill="#89B5E0" d="M95,58.441c0,3.498-2.836,6.333-6.333,6.333H68.333c-3.498,0-6.333-2.835-6.333-6.333v-0.333
		c0-3.498,2.835-6.333,6.333-6.333h20.333c3.498,0,6.333,2.835,6.333,6.333V58.441z"/>
	<path fill="#89B5E0" d="M125,66.775c0,3.313-2.687,6-6,6H94c-3.313,0-6-2.687-6-6l0,0c0-3.313,2.687-6,6-6h25
		C122.313,60.775,125,63.461,125,66.775L125,66.775z"/>
	<path fill="#89B5E0" d="M122,60.775c0,2.209-1.791,4-4,4H98c-2.209,0-4-1.791-4-4l0,0c0-2.209,1.791-4,4-4h20
		C120.209,56.775,122,58.566,122,60.775L122,60.775z"/>
	<path fill="#89B5E0" d="M146,40.775c0,6.627-5.373,12-12,12h-11c-6.627,0-12-5.373-12-12l0,0c0-6.627,5.373-12,12-12h11
		C140.627,28.775,146,34.147,146,40.775L146,40.775z"/>
	<path fill="#89B5E0" d="M125,32.941c0,3.222-2.611,5.833-5.833,5.833h-12.334c-3.222,0-5.833-2.612-5.833-5.833v-0.333
		c0-3.222,2.611-5.833,5.833-5.833h12.334c3.222,0,5.833,2.612,5.833,5.833V32.941z"/>
	<path fill="#89B5E0" d="M133,47.941c0,2.669-2.164,4.833-4.833,4.833h-13.334c-2.669,0-4.833-2.164-4.833-4.833v-0.333
		c0-2.669,2.164-4.833,4.833-4.833h13.334c2.669,0,4.833,2.164,4.833,4.833V47.941z"/>
	<path fill="#89B5E0" d="M139,55.275c0,1.933-1.567,3.5-3.5,3.5h-14c-1.933,0-3.5-1.567-3.5-3.5l0,0c0-1.933,1.567-3.5,3.5-3.5h14
		C137.433,51.775,139,53.342,139,55.275L139,55.275z"/>
	<path fill="#89B5E0" d="M157,47.941c0,3.222-2.611,5.833-5.833,5.833h-20.334c-3.222,0-5.833-2.612-5.833-5.833v-0.333
		c0-3.222,2.611-5.833,5.833-5.833h20.334c3.222,0,5.833,2.612,5.833,5.833V47.941z"/>
	<path fill="#89B5E0" d="M156,36.441c0,1.841-1.492,3.333-3.333,3.333h-17.334c-1.841,0-3.333-1.493-3.333-3.333v-0.333
		c0-1.841,1.492-3.333,3.333-3.333h17.334c1.841,0,3.333,1.493,3.333,3.333V36.441z"/>
	<path fill="#9CCAEF" d="M155,41.942c0,2.117-1.716,3.833-3.833,3.833h-7.334c-2.117,0-3.833-1.716-3.833-3.833v-0.334
		c0-2.117,1.716-3.833,3.833-3.833h7.334c2.117,0,3.833,1.716,3.833,3.833V41.942z"/>
	<path fill="#9CCAEF" d="M144,55.275c0,1.933-1.567,3.5-3.5,3.5h-13c-1.933,0-3.5-1.567-3.5-3.5l0,0c0-1.933,1.567-3.5,3.5-3.5h13
		C142.433,51.775,144,53.342,144,55.275L144,55.275z"/>
	<path fill="#9CCAEF" d="M148,40.275c0,1.381-1.119,2.5-2.5,2.5h-12c-1.381,0-2.5-1.119-2.5-2.5l0,0c0-1.381,1.119-2.5,2.5-2.5h12
		C146.881,37.775,148,38.894,148,40.275L148,40.275z"/>
	<path fill="#9CCAEF" d="M152,31.441c0,2.394-1.94,4.333-4.333,4.333h-16.334c-2.393,0-4.333-1.94-4.333-4.333v-0.333
		c0-2.394,1.94-4.333,4.333-4.333h16.334c2.393,0,4.333,1.94,4.333,4.333V31.441z"/>
	<path fill="#9CCAEF" d="M156,68.942c0,2.669-2.164,4.833-4.833,4.833h-25.334c-2.669,0-4.833-2.164-4.833-4.833v-0.334
		c0-2.669,2.164-4.833,4.833-4.833h25.334c2.669,0,4.833,2.164,4.833,4.833V68.942z"/>
	<path fill="#9CCAEF" d="M143,61.441c0,2.946-2.388,5.333-5.333,5.333h-8.334c-2.945,0-5.333-2.388-5.333-5.333v-0.333
		c0-2.946,2.388-5.333,5.333-5.333h8.334c2.945,0,5.333,2.388,5.333,5.333V61.441z"/>
	<path fill="#9CCAEF" d="M131,60.275c0,1.933-1.567,3.5-3.5,3.5h-9c-1.933,0-3.5-1.567-3.5-3.5l0,0c0-1.933,1.567-3.5,3.5-3.5h9
		C129.433,56.775,131,58.342,131,60.275L131,60.275z"/>
	<path fill="#9CCAEF" d="M165,57.775c0,4.418-3.582,8-8,8h-12c-4.418,0-8-3.582-8-8l0,0c0-4.418,3.582-8,8-8h12
		C161.418,49.775,165,53.356,165,57.775L165,57.775z"/>
	<path fill="#9CCAEF" d="M165,45.775c0,3.313-2.687,6-6,6h-3c-3.313,0-6-2.687-6-6l0,0c0-3.313,2.687-6,6-6h3
		C162.313,39.775,165,42.461,165,45.775L165,45.775z"/>
	<path fill="#9CCAEF" d="M166,38.775c0,2.209-1.791,4-4,4h-9c-2.209,0-4-1.791-4-4l0,0c0-2.209,1.791-4,4-4h9
		C164.209,34.775,166,36.566,166,38.775L166,38.775z"/>
	<path fill="#9CCAEF" d="M164,33.441c0,2.946-2.388,5.333-5.333,5.333h-8.334c-2.945,0-5.333-2.388-5.333-5.333v-0.333
		c0-2.946,2.388-5.333,5.333-5.333h8.334c2.945,0,5.333,2.388,5.333,5.333V33.441z"/>
	<path fill="#9CCAEF" d="M132,73.941c0,1.565-1.269,2.834-2.834,2.834h-24.332c-1.565,0-2.834-1.269-2.834-2.834v-0.332
		c0-1.565,1.269-2.834,2.834-2.834h24.332c1.565,0,2.834,1.269,2.834,2.834V73.941z"/>
	<path fill="#9CCAEF" d="M170,66.942c0,3.222-2.611,5.833-5.833,5.833h-32.334c-3.222,0-5.833-2.611-5.833-5.833v-0.334
		c0-3.222,2.611-5.833,5.833-5.833h32.334c3.222,0,5.833,2.611,5.833,5.833V66.942z"/>
	<path fill="#9CCAEF" d="M155,76.442c0,1.841-1.492,3.333-3.334,3.333h-17.332c-1.842,0-3.334-1.492-3.334-3.333v-0.334
		c0-1.841,1.492-3.333,3.334-3.333h17.332c1.842,0,3.334,1.492,3.334,3.333V76.442z"/>
	<path fill="#9CCAEF" d="M177,53.775c0,1.657-1.343,3-3,3h-10c-1.657,0-3-1.343-3-3l0,0c0-1.657,1.343-3,3-3h10
		C175.657,50.775,177,52.118,177,53.775L177,53.775z"/>
	<path fill="#9CCAEF" d="M173,46.775c0,1.657-1.343,3-3,3h-5c-1.657,0-3-1.343-3-3l0,0c0-1.657,1.343-3,3-3h5
		C171.657,43.775,173,45.118,173,46.775L173,46.775z"/>
	<path fill="#9CCAEF" d="M183,38.442c0,0.736-0.597,1.333-1.333,1.333h-15.334c-0.736,0-1.333-0.597-1.333-1.333v-0.334
		c0-0.736,0.597-1.333,1.333-1.333h15.334c0.736,0,1.333,0.597,1.333,1.333V38.442z"/>
	<path fill="#9CCAEF" d="M178,44.441c0,2.394-1.94,4.333-4.333,4.333h-5.334c-2.393,0-4.333-1.94-4.333-4.333v-0.333
		c0-2.394,1.94-4.333,4.333-4.333h5.334c2.393,0,4.333,1.94,4.333,4.333V44.441z"/>
	<path fill="#9CCAEF" d="M169,51.275c0,1.381-1.119,2.5-2.5,2.5l0,0c-1.381,0-2.5-1.119-2.5-2.5l0,0c0-1.381,1.119-2.5,2.5-2.5l0,0
		C167.881,48.775,169,49.894,169,51.275L169,51.275z"/>
	<path fill="#9CCAEF" d="M173,50.775c0,0.552-0.447,1-1,1h-14c-0.553,0-1-0.448-1-1l0,0c0-0.552,0.447-1,1-1h14
		C172.553,49.775,173,50.223,173,50.775L173,50.775z"/>
	<path fill="#9CCAEF" d="M174,38.941c0,1.565-1.269,2.833-2.833,2.833h-4.334c-1.564,0-2.833-1.269-2.833-2.833v-0.333
		c0-1.565,1.269-2.833,2.833-2.833h4.334c1.564,0,2.833,1.269,2.833,2.833V38.941z"/>
	<path fill="#9CCAEF" d="M177,41.275c0,1.933-1.567,3.5-3.5,3.5h-16c-1.933,0-3.5-1.567-3.5-3.5l0,0c0-1.933,1.567-3.5,3.5-3.5h16
		C175.433,37.775,177,39.342,177,41.275L177,41.275z"/>
	<path fill="#9CCAEF" d="M182,59.275c0,2.485-2.015,4.5-4.5,4.5h-6c-2.485,0-4.5-2.015-4.5-4.5l0,0c0-2.485,2.015-4.5,4.5-4.5h6
		C179.985,54.775,182,56.79,182,59.275L182,59.275z"/>
	<path fill="#9CCAEF" d="M190,61.275c0,6.351-5.148,11.5-11.5,11.5h-18c-6.352,0-11.5-5.149-11.5-11.5l0,0
		c0-6.351,5.148-11.5,11.5-11.5h18C184.852,49.775,190,54.924,190,61.275L190,61.275z"/>
</g>
<path fill="#FFFF03" d="M63,21.775c0,0.552-0.448,1-1,1h-6c-0.552,0-1-0.448-1-1l0,0c0-0.552,0.448-1,1-1h6
	C62.552,20.775,63,21.223,63,21.775L63,21.775z"/>
<path fill="#FFCF06" d="M57,24.775c0,0.552-0.447,1-1,1h-6c-0.553,0-1-0.448-1-1l0,0c0-0.552,0.447-1,1-1h6
	C56.553,23.775,57,24.223,57,24.775L57,24.775z"/>
<path fill="#FBAEFF" d="M69,18.775c0,0.552-0.447,1-1,1h-6c-0.553,0-1-0.448-1-1l0,0c0-0.552,0.447-1,1-1h6
	C68.553,17.775,69,18.223,69,18.775L69,18.775z"/>
<path fill="#00FF85" d="M142,55.275c0,0.829-0.672,1.5-1.5,1.5h-10c-0.828,0-1.5-0.671-1.5-1.5l0,0c0-0.829,0.672-1.5,1.5-1.5h10
	C141.328,53.775,142,54.446,142,55.275L142,55.275z"/>
<path fill="#00FFDA" d="M133,59.275c0,0.829-0.672,1.5-1.5,1.5h-10c-0.828,0-1.5-0.671-1.5-1.5l0,0c0-0.829,0.672-1.5,1.5-1.5h10
	C132.328,57.775,133,58.446,133,59.275L133,59.275z"/>
<path fill="#C60202" d="M125,63.275c0,0.829-0.672,1.5-1.5,1.5h-10c-0.828,0-1.5-0.671-1.5-1.5l0,0c0-0.829,0.672-1.5,1.5-1.5h10
	C124.328,61.775,125,62.446,125,63.275L125,63.275z"/>
</svg>
