<?xml version="1.0" encoding="utf-8"?>
<!-- Generator: Adobe Illustrator 15.0.0, SVG Export Plug-In . SVG Version: 6.00 Build 0)  -->
<!DOCTYPE svg PUBLIC "-//W3C//DTD SVG 1.1//EN" "http://www.w3.org/Graphics/SVG/1.1/DTD/svg11.dtd">
<svg version="1.1" id="Layer_1" xmlns="http://www.w3.org/2000/svg" xmlns:xlink="http://www.w3.org/1999/xlink" x="0px" y="0px"
	 width="100px" height="100px" viewBox="0 0 100 100" enable-background="new 0 0 100 100" xml:space="preserve">
<polygon fill="#00FF06" points="0,0 0,18 18,18 "/>
<polygon fill="#F3FF00" points="18,18 18,0 0,0 "/>
<polygon fill="#00FF06" points="0,18 0,36 18,36 "/>
<polygon fill="#F3FF00" points="18,36 18,18 0,18 "/>
<polygon fill="#00FF06" points="18,0 18,18 36,18 "/>
<polygon fill="#F3FF00" points="36,18 36,0 18,0 "/>
<polygon fill="#00FF06" points="18,18 18,36 36,36 "/>
<polygon fill="#F3FF00" points="36,36 36,18 18,18 "/>
<polygon fill="#00FF06" points="64,64 64,82 82,82 "/>
<polygon fill="#F3FF00" points="82,82 82,64 64,64 "/>
<polygon fill="#00FF06" points="64,82 64,100 82,100 "/>
<polygon fill="#F3FF00" points="82,100 82,82 64,82 "/>
<polygon fill="#00FF06" points="82,64 82,82 100,82 "/>
<polygon fill="#F3FF00" points="100,82 100,64 82,64 "/>
<polygon fill="#00FF06" points="82,82 82,100 100,100 "/>
<polygon fill="#F3FF00" points="100,100 100,82 82,82 "/>
<polygon fill="#FFD400" points="0,64 0,82 18,82 "/>
<polygon fill="#00FFFF" points="18,82 18,64 0,64 "/>
<polygon fill="#E8DCFF" points="0,82 0,100 18,100 "/>
<polygon fill="#F3FF00" points="18,100 18,82 0,82 "/>
<polygon fill="#00FF06" points="18,64 18,82 36,82 "/>
<polygon fill="#00E7FF" points="36,82 36,64 18,64 "/>
<polygon fill="#FFE000" points="18,82 18,100 36,100 "/>
<polygon fill="#FF9D00" points="36,100 36,82 18,82 "/>
<polygon fill="#FFD400" points="33,64 33,82 51,82 "/>
<polygon fill="#00FFFF" points="51,82 51,64 33,64 "/>
<polygon fill="#E8DCFF" points="33,82 33,100 51,100 "/>
<polygon fill="#F3FF00" points="51,100 51,82 33,82 "/>
<polygon fill="#00FF06" points="51,64 51,82 69,82 "/>
<polygon fill="#00E7FF" points="69,82 69,64 51,64 "/>
<polygon fill="#FFE000" points="51,82 51,100 69,100 "/>
<polygon fill="#FF9D00" points="69,100 69,82 51,82 "/>
<polygon fill="#FFD400" points="0,31 0,49 18,49 "/>
<polygon fill="#00FFFF" points="18,49 18,31 0,31 "/>
<polygon fill="#E8DCFF" points="0,49 0,67 18,67 "/>
<polygon fill="#F3FF00" points="18,67 18,49 0,49 "/>
<polygon fill="#00FF06" points="18,31 18,49 36,49 "/>
<polygon fill="#00E7FF" points="36,49 36,31 18,31 "/>
<polygon fill="#FFE000" points="18,49 18,67 36,67 "/>
<polygon fill="#FF9D00" points="36,67 36,49 18,49 "/>
<polygon fill="#FFD400" points="36,28 36,46 54,46 "/>
<polygon fill="#00FFFF" points="54,46 54,28 36,28 "/>
<polygon fill="#E8DCFF" points="36,46 36,64 54,64 "/>
<polygon fill="#F3FF00" points="54,64 54,46 36,46 "/>
<polygon fill="#00FF06" points="54,28 54,46 72,46 "/>
<polygon fill="#00E7FF" points="72,46 72,28 54,28 "/>
<polygon fill="#FFE000" points="54,46 54,64 72,64 "/>
<polygon fill="#FF9D00" points="72,64 72,46 54,46 "/>
<polygon fill="#FFD400" points="64,28 64,46 82,46 "/>
<polygon fill="#00FFFF" points="82,46 82,28 64,28 "/>
<polygon fill="#E8DCFF" points="64,46 64,64 82,64 "/>
<polygon fill="#F3FF00" points="82,64 82,46 64,46 "/>
<polygon fill="#00FF06" points="82,28 82,46 100,46 "/>
<polygon fill="#00E7FF" points="100,46 100,28 82,28 "/>
<polygon fill="#FFE000" points="82,46 82,64 100,64 "/>
<polygon fill="#FF9D00" points="100,64 100,46 82,46 "/>
<polygon fill="#FFD400" points="49,13.544 36.272,26.272 49,39 "/>
<polygon fill="#00FFFF" points="49,39 61.728,26.272 49,13.544 "/>
<polygon fill="#E8DCFF" points="36,26.272 23.272,39 36,51.728 "/>
<polygon fill="#F3FF00" points="36,51.728 48.728,39 36,26.272 "/>
<polygon fill="#00FF06" points="62,26.272 49.272,39 62,51.728 "/>
<polygon fill="#00E7FF" points="62,51.728 74.729,39 62,26.272 "/>
<polygon fill="#FFE000" points="49,39 36.272,51.728 49,64.456 "/>
<polygon fill="#FF9D00" points="49,64.456 61.728,51.728 49,39 "/>
<polygon fill="#FFD400" points="74,-0.456 61.271,12.272 74,25 "/>
<polygon fill="#00FFFF" points="74,25 86.728,12.272 74,-0.456 "/>
<polygon fill="#E8DCFF" points="61,12.272 48.272,25 61,37.728 "/>
<polygon fill="#F3FF00" points="61,37.728 73.729,25 61,12.272 "/>
<polygon fill="#00FF06" points="87,12.272 74.272,25 87,37.728 "/>
<polygon fill="#00E7FF" points="87,37.728 99.729,25 87,12.272 "/>
<polygon fill="#FFE000" points="74,25 61.271,37.728 74,50.456 "/>
<polygon fill="#FF9D00" points="74,50.456 86.728,37.728 74,25 "/>
<polygon fill="#FFD400" points="36,-0.456 23.271,12.272 36,25 "/>
<polygon fill="#00FFFF" points="36,25 48.728,12.272 36,-0.456 "/>
<polygon fill="#E8DCFF" points="23,12.272 10.272,25 23,37.728 "/>
<polygon fill="#F3FF00" points="23,37.728 35.729,25 23,12.272 "/>
<polygon fill="#00FF06" points="35.272,0 48,12.728 60.728,0 "/>
<polygon fill="#00E7FF" points="49,37.728 61.729,25 49,12.272 "/>
<polygon fill="#FFE000" points="36,25 23.271,37.728 36,50.456 "/>
<polygon fill="#FF9D00" points="36,50.456 48.728,37.728 36,25 "/>
<polygon fill="#FFD400" points="100,-0.456 87.271,12.272 100,25 "/>
<polygon fill="#00FFFF" points="55,61.999 86.227,30.772 55,-0.455 "/>
<polygon fill="#E8DCFF" points="55,0.272 23.136,32.136 55,63.999 "/>
<polygon fill="#F3FF00" points="36,51.728 48.729,39 36,26.272 "/>
<polygon fill="#00FF06" points="62,26.272 49.272,39 62,51.728 "/>
<polygon fill="#00E7FF" points="62,51.728 74.729,39 62,26.272 "/>
<polygon fill="#FFE000" points="49,39 36.271,51.728 49,64.456 "/>
<polygon fill="#FF9D00" points="49,64.456 61.728,51.728 49,39 "/>
<polygon fill="#00FF06" points="52.272,0 65,12.728 77.728,0 "/>
<polygon fill="#E8DCFF" points="36.136,0 68,31.864 99.863,0 "/>
</svg>
