<?xml version="1.0" encoding="utf-8"?>
<!-- Generator: Adobe Illustrator 15.0.0, SVG Export Plug-In . SVG Version: 6.00 Build 0)  -->
<!DOCTYPE svg PUBLIC "-//W3C//DTD SVG 1.1//EN" "http://www.w3.org/Graphics/SVG/1.1/DTD/svg11.dtd">
<svg version="1.1" id="Layer_1" xmlns="http://www.w3.org/2000/svg" xmlns:xlink="http://www.w3.org/1999/xlink" x="0px" y="0px"
	 width="219.845px" height="141.776px" viewBox="0 0 219.845 141.776" enable-background="new 0 0 219.845 141.776"
	 xml:space="preserve">
<g>
	<path opacity="0.49" fill="#AFAFAF" d="M27.416,72.775h10.36c-5.722,0-10.36-4.279-10.36-10s4.639-10,10.36-10h7.769
		c0-6,4.223-11.547,10.344-12.577C55.623,39.437,55,38.787,55,37.936v-0.784c0-4.074,4.205-7.376,8.279-7.376h37.039
		c4.075,0,7.682,3.303,7.682,7.376v0.784c0,0.771-0.456,0.839-0.675,1.839h10.729c7.151,0,12.949,6.529,12.949,13.679
		c0,0.888-0.092,1.321-0.261,3.321h14.504c10.726,0,19.422,8.143,19.422,18.871c0,4.418-1.492,8.203-3.978,11.468
		c0.858,1.508,1.388,3.336,1.388,5.196c0,5.72-4.638,10.465-10.358,10.465H99.927c-4.136,0-7.679-2.853-9.338-6.356
		c-0.978,0.476-2.059,0.356-3.22,0.356H50.332c-2.237,0-4.218,0-5.569-2H27.416c-5.72,0-10.358-5.281-10.358-11
		C17.058,78.054,21.696,72.775,27.416,72.775z"/>
	<path fill="#FF5FBE" d="M39.647,63.775h11.096c-6.128,0-11.096-4.872-11.096-11s4.968-11,11.096-11h8.322
		c0-7,4.927-12.551,11.483-13.654C70.266,27.306,70,26.428,70,25.517v-0.84c0-4.364,3.699-7.902,8.062-7.902h39.676
		c4.364,0,8.262,3.538,8.262,7.902v0.84c0,0.826-0.521,1.258-0.756,2.258h11.492c7.66,0,13.87,6.389,13.87,14.048
		c0,0.951-0.098,1.952-0.279,2.952h15.536c11.49,0,20.805,9.185,20.805,20.675c0,4.732-1.598,9.019-4.262,12.515
		c0.92,1.615,1.488,3.591,1.488,5.583c0,6.128-4.969,11.228-11.097,11.228h-55.479c-4.431,0-8.225-2.842-10.003-6.596
		c-1.046,0.51-2.205,0.596-3.447,0.596H64.193c-2.396,0-4.518-1-5.967-3H39.647c-6.128,0-11.097-4.873-11.097-11
		C28.551,68.647,33.52,63.775,39.647,63.775z"/>
	<path fill="#F90B0B" d="M141,32.775c0-1.104-0.896-2-2-2h-11c-1.104,0-2,0.896-2,2l0,0c0,1.104,0.896,2,2,2h11
		C140.104,34.775,141,33.879,141,32.775L141,32.775z"/>
	<path fill="#FFFFFF" d="M73,47.275c0-0.829-0.671-1.5-1.5-1.5h-9c-0.829,0-1.5,0.671-1.5,1.5l0,0c0,0.829,0.671,1.5,1.5,1.5h9
		C72.329,48.775,73,48.104,73,47.275L73,47.275z"/>
	<path fill="#0867F2" d="M69,49.275c0-0.829-0.671-1.5-1.5-1.5h-9c-0.829,0-1.5,0.671-1.5,1.5l0,0c0,0.829,0.671,1.5,1.5,1.5h9
		C68.329,50.775,69,50.104,69,49.275L69,49.275z"/>
</g>
</svg>
