<?xml version="1.0" encoding="utf-8"?>
<!-- Generator: Adobe Illustrator 15.0.0, SVG Export Plug-In . SVG Version: 6.00 Build 0)  -->
<!DOCTYPE svg PUBLIC "-//W3C//DTD SVG 1.1//EN" "http://www.w3.org/Graphics/SVG/1.1/DTD/svg11.dtd">
<svg version="1.1" id="Layer_1" xmlns="http://www.w3.org/2000/svg" xmlns:xlink="http://www.w3.org/1999/xlink" x="0px" y="0px"
	 width="219.845px" height="141.776px" viewBox="0 0 219.845 141.776" enable-background="new 0 0 219.845 141.776"
	 xml:space="preserve">
<path opacity="0.49" fill="#AFAFAF" d="M177.252,72.775h-10.36c5.722,0,10.36-4.279,10.36-10s-4.639-10-10.36-10h-7.769
	c0-6-4.057-11.547-10.178-12.577c0.266-0.761,1.055-1.411,1.055-2.262v-0.784c0-4.074-4.537-7.376-8.611-7.376H104.35
	c-4.075,0-7.35,3.303-7.35,7.376v0.784c0,0.771,0.124,0.839,0.343,1.839H86.614c-7.151,0-12.949,6.529-12.949,13.679
	c0,0.888,0.092,1.321,0.261,3.321H59.422C48.696,56.775,40,64.917,40,75.646c0,4.418,1.492,8.203,3.978,11.468
	c-0.858,1.508-1.388,3.336-1.388,5.196c0,5.72,4.638,10.465,10.358,10.465h51.793c4.136,0,7.679-2.853,9.338-6.356
	c0.978,0.476,2.059,0.356,3.22,0.356h37.037c2.237,0,4.218,0,5.569-2h17.347c5.72,0,10.358-5.281,10.358-11
	C187.61,78.054,182.972,72.775,177.252,72.775z"/>
<path fill="#FF5FBE" d="M165.021,63.775h-11.096c6.128,0,11.096-4.872,11.096-11s-4.968-11-11.096-11h-8.322
	c0-7-4.761-12.551-11.317-13.654c0.283-0.815,0.715-1.693,0.715-2.604v-0.84c0-4.364-4.031-7.902-8.395-7.902H86.93
	c-4.364,0-7.93,3.538-7.93,7.902v0.84c0,0.826,0.19,1.258,0.424,2.258H67.932c-7.66,0-13.87,6.389-13.87,14.048
	c0,0.951,0.098,1.952,0.279,2.952H38.805C27.315,44.775,18,53.959,18,65.45c0,4.732,1.598,9.019,4.261,12.515
	c-0.92,1.615-1.487,3.591-1.487,5.583c0,6.128,4.968,11.228,11.096,11.228H87.35c4.431,0,8.225-2.842,10.003-6.596
	c1.046,0.51,2.205,0.596,3.447,0.596h39.675c2.396,0,4.518-1,5.967-3h18.579c6.128,0,11.097-4.873,11.097-11
	C176.117,68.647,171.148,63.775,165.021,63.775z"/>
<path fill="#F90B0B" d="M79,32.775c0,1.104-0.896,2-2,2H66c-1.104,0-2-0.896-2-2l0,0c0-1.104,0.896-2,2-2h11
	C78.104,30.775,79,31.67,79,32.775L79,32.775z"/>
<path fill="#FFFFFF" d="M144,47.275c0,0.829-0.672,1.5-1.5,1.5h-9c-0.828,0-1.5-0.671-1.5-1.5l0,0c0-0.829,0.672-1.5,1.5-1.5h9
	C143.328,45.775,144,46.446,144,47.275L144,47.275z"/>
<path fill="#0867F2" d="M148,49.275c0,0.829-0.672,1.5-1.5,1.5h-9c-0.828,0-1.5-0.671-1.5-1.5l0,0c0-0.829,0.672-1.5,1.5-1.5h9
	C147.328,47.775,148,48.446,148,49.275L148,49.275z"/>
</svg>
