<svg xmlns="http://www.w3.org/2000/svg" xml:space="preserve" id="Layer_1" x="0" y="0" viewBox="-148 -60 342 480"><style>.st1{fill:#29a9df}</style><path id="_x23_000000ff" d="M-74.3-46.6c19.9-.2 39.8-.1 59.7-.1 0 6.2.1 12.5-.1 18.7-13.8-.1-27.6 0-41.4.1-.1 9-.3 18.1-.2 27.1 13.8.1 27.7.2 41.5.2.2 5.1.1 10.3 0 15.4-19.9-.1-39.7-.1-59.6-.1.2-20.4.2-40.9.1-61.3m66.8-.1c20.2 0 40.3-.2 60.5.1-.1 5.9 0 11.8 0 17.7-14.7 0-29.3 0-44 .2v6.9c14.6.2 29.3.3 43.9.4.1 12 0 24.1.1 36.1-20.2 0-40.3 0-60.5.1-.1-4.9-.1-9.7 0-14.6 14 0 28 .1 41.9-.1.1-3.1.1-6.3.1-9.4H-7.6c0-12.5 0-24.9.1-37.4m67.2.1h60.4c.1 5.9.2 11.8 0 17.7-14.7 0-29.5.1-44.2.1 0 2.4.1 4.8.2 7.3 14.6-.1 29.3.1 43.9.3.1 12 .2 24 .1 36-20.2-.1-40.3-.1-60.5 0-.1-4.9-.2-9.7 0-14.6 13.9.1 27.9.1 41.9 0 0-3.1.1-6.3.1-9.4q-21 .15-42 0c0-12.4.1-24.9.1-37.4"/><path id="_x23_0170baff" d="M-139.1 40.1h324c-5.9 67.2-11.8 134.3-18 201.5-3.7 42.9-7.5 85.8-11.5 128.7-23 6.1-45.9 13.1-68.9 19.2-21.2 6.2-42.5 11.8-63.7 18h-.6c-20.1-6-40.5-11.3-60.6-17.3-23.8-6.4-47.3-13.6-71.1-19.9-3.1-32.1-5.9-64.3-8.7-96.5-5.2-59.4-10.9-118.8-15.9-178.3-1.7-17.9-3-35.8-5.1-53.7v-1.7M23.4 66.6c-.2 12.9.2 25.8-.2 38.7-37.1-.1-74.1 0-111.2 0 .6 12.5 2.3 25 4 37.4 34.5 1.3 69 0 103.5 1-30.2 13.5-60.7 26.3-91 39.5-2.6 1.2-5.4 2-7.7 3.7.3 13.8 2.5 27.4 3.5 41.2 18.4-.1 36.7-.4 55.1-.4 14.7-.1 29.5.2 44.2-.1-.7 22.6.2 45.3-.5 67.9-9.9-1.5-19.7-3.7-29.6-5.4-7.8-1.7-15.8-2.6-23.4-4.8-1.1-10.9-1.8-21.7-2.8-32.6-2.2-.7-4.6-.6-6.9-.7-11.1.1-22.3 0-33.4.1 1.1 20.9 3 41.7 6.2 62.4 11 2.9 22 5.7 32.9 8.7 16.8 4.6 33.8 8.4 50.6 12.9 2 .4 4 1.2 6.1 1 1.1 13.7.3 27.6.5 41.3 3.9-.6 7.7-1.6 11.4-2.7 31.8-8.6 63.6-17.5 95.5-26.2 1.6-12.5 2.3-25.1 3.6-37.7 3.3-38.1 6.6-76.3 10.1-114.4 4.1-43.6 7.6-87.3 11.7-130.9-44.1.1-88.2 0-132.2.1" style="fill:#0170ba"/><g id="_x23_29a9dfff"><path d="M23.4 66.6c44-.1 88.1 0 132.2-.1-4.1 43.6-7.6 87.3-11.7 130.9-3.5 38.1-6.8 76.3-10.1 114.4-1.3 12.5-2 25.1-3.6 37.7-31.8 8.7-63.6 17.5-95.5 26.2-3.7 1.2-7.6 2.1-11.4 2.7-.2-13.8.7-27.6-.5-41.3.3-.1.9-.2 1.1-.2 29.6-7.4 59-15.6 88.6-23.3 3.7-41.9 7.9-83.8 10.5-125.8-25.1.1-50.3.1-75.4.2-3.7 0-7.3 0-11-.3 13.5-7 27.7-12.5 41.6-18.7 13.3-6 26.8-11.7 40.2-17.6 2.6-1.2 5.3-2.2 7.6-3.9.9-3.3.8-6.7 1.2-10 .8-10.6 2.1-21.2 2.6-31.8-35.6-.3-71.2 0-106.8-.2.6-13 .2-26 .4-38.9" class="st1"/><path d="M23.6 227.6c17.2-.3 34.4.2 51.6.1-1 17.6-2.4 35.1-3.3 52.7-10.5 3.4-21.2 6.4-31.8 9.5-5.7 1.7-11.5 3.1-16.9 5.6.6-22.6-.3-45.2.4-67.9" class="st1"/></g><path id="_x23_cfcfcfff" d="M-88 105.4c37.1 0 74.1-.1 111.2 0 .5 40.8-.1 81.5.4 122.3-14.7.3-29.5 0-44.2.1-18.4 0-36.7.3-55.1.4-1-13.7-3.2-27.4-3.5-41.2 2.3-1.7 5.1-2.6 7.7-3.7 30.3-13.2 60.8-26 91-39.5-34.5-1-69 .3-103.5-1-1.7-12.5-3.4-24.9-4-37.4m15 146.7c11.1-.2 22.3-.1 33.4-.1 2.3 0 4.6 0 6.9.7 1 10.9 1.7 21.8 2.8 32.6 7.7 2.2 15.6 3.1 23.4 4.8 9.9 1.8 19.7 4 29.6 5.4.9 13.8-.7 27.6.9 41.3-.3.1-.9.2-1.1.2-2.1.2-4.1-.6-6.1-1-16.8-4.5-33.8-8.3-50.6-12.9-11-3-22-5.8-32.9-8.7-3.3-20.5-5.2-41.4-6.3-62.3" style="fill:#cfcfcf"/><path id="_x23_ffffffff" d="M23.2 105.4c35.6.2 71.2-.1 106.8.2-.5 10.6-1.9 21.2-2.6 31.8-.4 3.3-.3 6.8-1.2 10-2.3 1.8-5 2.7-7.6 3.9-13.4 5.9-26.8 11.6-40.2 17.6-13.9 6.2-28.1 11.7-41.6 18.7 3.6.3 7.3.3 11 .3 25.1-.1 50.3 0 75.4-.2-2.6 42-6.8 83.9-10.5 125.8-29.5 7.7-59 15.9-88.6 23.3-1.6-13.7.1-27.6-.9-41.3 5.4-2.5 11.2-3.9 16.9-5.6 10.6-3.2 21.3-6.1 31.8-9.5.9-17.6 2.4-35.1 3.3-52.7-17.2.1-34.4-.4-51.6-.1-.6-40.7 0-81.5-.4-122.2" style="fill:#fff"/></svg>