<svg xmlns="http://www.w3.org/2000/svg" width="1200" height="800" viewBox="-40.126 -16.312 347.755 97.871"><path fill="#6e00ff" d="M263.744 61.11a1.2 1.2 0 0 0 1.21-1.27c0-.9-.543-1.33-1.657-1.33h-1.8v4.712h.677v-2.054h.832l.019.025 1.291 2.03h.724l-1.389-2.1zm-.783-.473h-.785v-1.593h.995c.514 0 1.1.084 1.1.757 0 .774-.593.836-1.314.836M0 9.587h9.993v36.4h18.5v9.222H0zm32.911 14.69h9.6v30.915h-9.6zm4.8-15.37a5.569 5.569 0 1 1-5.57 5.568 5.57 5.57 0 0 1 5.57-5.569m44.958.674h9.6v27.265l10.88-12.583h11.77l-12.6 14.313 12.335 16.63h-12.066L92.397 39.923h-.126v15.28h-9.6zm-34.835 14.7h9.219v4.224h.131a10.09 10.09 0 0 1 9.09-4.994c9.735 0 11.527 6.405 11.527 14.726V55.19h-9.6V40.16c0-3.589-.066-8.2-5-8.2-4.99 0-5.76 3.906-5.76 7.938v15.288h-9.6z"/><path fill="#6e00ff" d="M135.136 36.138a5.756 5.756 0 0 0-5.894-5.89 6.406 6.406 0 0 0-6.784 5.89zm8.132 13.7a16.9 16.9 0 0 1-13.128 6.151c-9.6 0-17.286-6.408-17.286-16.33 0-9.924 7.685-16.329 17.286-16.329 8.973 0 14.6 6.4 14.6 16.328v3.01h-22.282a7.17 7.17 0 0 0 7.235 6.02 8.2 8.2 0 0 0 6.851-3.779zM164.75 31.75c-4.8 0-7.68 3.205-7.68 7.875s2.879 7.878 7.68 7.878 7.687-3.2 7.687-7.878-2.881-7.875-7.687-7.875m16.525 23.437h-8.838v-4.1h-.131a12.07 12.07 0 0 1-9.544 4.868c-9.224 0-15.3-6.657-15.3-16.07 0-8.647 5.377-16.586 14.216-16.586 3.973 0 7.684 1.087 9.861 4.1h.126V9.578h9.609zm64.809.018h-9.6V40.17c0-3.585-.064-8.2-4.993-8.2-5 0-5.765 3.906-5.765 7.94v15.293h-9.6V24.287h9.216v4.225h.129a10.1 10.1 0 0 1 9.093-4.994c9.73 0 11.524 6.4 11.524 14.726zm-40.79-35.143a5.571 5.571 0 1 1 5.57-5.572 5.57 5.57 0 0 1-5.57 5.572m4.8 35.143h-9.61V24.287h9.61zM250.87.004h-55.21a4.73 4.73 0 0 0-4.781 4.67v55.44a4.73 4.73 0 0 0 4.781 4.674h55.21a4.74 4.74 0 0 0 4.8-4.675V4.67a4.74 4.74 0 0 0-4.8-4.67m12.173 56.411a4.418 4.418 0 1 0 .085 0zm0 8.33a3.874 3.874 0 1 1 3.809-3.938v.065a3.79 3.79 0 0 1-3.708 3.871h-.1"/></svg>