<?xml version="1.0" encoding="utf-8"?>
<!-- Generator: Adobe Illustrator 24.2.1, SVG Export Plug-In . SVG Version: 6.00 Build 0)  -->
<svg version="1.1" xmlns="http://www.w3.org/2000/svg" xmlns:xlink="http://www.w3.org/1999/xlink" x="0px" y="0px"
	 viewBox="0 0 595.28 841.89" style="enable-background:new 0 0 595.28 841.89;" xml:space="preserve">
<g id="Layer_1">
</g>
<g id="Layer_2">
	<path d="M343.22,290.2c-0.94-0.51-1.91-0.98-2.88-1.46c-0.84-0.42-1.69-0.82-2.56-1.21c-8.43-3.92-17.39-6.88-26.73-8.78
		c-7.77-1.56-15.79-2.39-24.01-2.39c-8.85,0-17.49,0.95-25.8,2.78c-7.93,1.71-15.55,4.21-22.81,7.42
		c-42.64,18.76-72.49,61.41-72.49,110.91c0,50.07,30.56,93.15,74.01,111.56c8,3.4,16.45,5.94,25.22,7.55
		c7.09,1.3,14.41,1.98,21.87,1.98c13.87,0,27.21-2.34,39.62-6.67c3.18-1.1,6.31-2.33,9.34-3.69
		c42.45-18.83,72.13-61.38,72.13-110.73C408.13,350.94,381.78,310.48,343.22,290.2z M289.85,297.6c12.64,0,22.38,3.37,30.1,10.36
		c-2.02,12.79-6.09,33.5-6.91,45.24c-0.64,9.04-0.48,20.58-0.2,28.74c-4.95-1.75-10.23-3.41-15.78-5.18
		c-0.33-0.1-0.69-0.22-1.06-0.33c-0.77-2.39-1.29-3.99-1.5-4.58c-1.17-3.23-14.96-41.71-24.82-69.21
		C274.89,299.53,281.53,297.6,289.85,297.6z M271.87,365.62c-3.41-2.08-6.54-4.38-9.01-6.86c-2.67-2.78-4.6-5.82-6-8.97
		c-0.02-8.59,0.06-16.93,0.33-23.63C261.1,336.75,266.68,351.78,271.87,365.62z M254.19,474.26c-0.01-0.01-0.01-0.03-0.03-0.04
		c-9.89-15.29-10.49-25.2-10.79-34.78c0-1.79-0.61-2.4-1.79-2.4l-4.5-0.3c-1.2,0-1.81,0-2.11,1.81c-0.74,7.19-2.91,34.44-4.32,47.9
		c-29.42-18.7-48.99-51.61-48.99-88.98c0-42.77,25.6-79.67,62.29-96.15c0.32,1.92,0.58,3.99,0.77,6.22
		c-6.99,8.65-12.74,20.26-12.74,32.05c0,18.41,4.41,31.89,13,41.64l1.16,29.17c1.2,16.63,5.58,30.03,8.03,49.05
		C255.44,469.31,254.8,472.64,254.19,474.26z M296.15,496.4c-6,0-12-1.07-17.63-3.12c-0.07-1.14-0.16-2.4-0.26-3.8
		c-0.04-0.54-3.1-10.28-3.25-10.79c-1.92-5.77-9.02-23.71-14.08-50.95c-2.25-12.86-2.25-24.75-2.36-34.95
		c10.15,6.62,21.57,11.04,28.93,13.68c4.12,10.91,13.49,36.25,22.56,60.5c3.02,8.17,6,16.21,8.71,23.53
		C311.69,494.54,303.51,496.4,296.15,496.4z M316.1,440.69c-2.5-7.96-5.34-17.07-8.13-25.99c3.75,1.87,7.29,3.95,10.51,6.32
		c1.13,7.97,2.62,18.64,2.62,18.64C321.39,442.73,317.02,443.63,316.1,440.69z M331.88,477.85c-0.52-5.66-0.94-11.83-1.21-18.44
		c0-0.06-0.4-12.66-1.32-27.5c4.74,6.81,7.58,15.36,7.58,26.41C336.92,466.12,335.02,472.58,331.88,477.85z M345.55,485.05
		c8.55-11.6,12.97-26.6,12.97-42.62c0-19.79-5.4-31.49-13.19-40.77c-5.41-6.6-12.31-11.18-20.45-14.93
		c-1.36-21.48,3.59-46.69,7.26-64.04c5.08,8.03,7.38,15.24,8.98,21.1c0.3,0.9,0.91,1.2,1.81,0.9l3.6-0.9
		c1.19-0.3,1.49-0.91,1.49-2.4c-0.2-4.38-1.98-19.35-3.17-31.99c28.62,18.86,47.56,51.29,47.56,88.07
		C392.41,433.94,373.78,466.13,345.55,485.05z"/>
</g>
</svg>
